{"title":"Catherine.Cooksons.The.Cinder.Path.1994.DVDRip.x264.Iou1","uid":11622083,"size":1462762510,"categoryP":"video","categoryS":"movies","magnet":"?xt=urn:btih:8c7731d9fdb70b0e51ceaee99cda9b33d5843366&amp;dn=Catherine.Cooksons.The.Cinder.Path.1994.DVDRip.x264.Iou1&amp;tr=udp%3A%2F%2Ftracker.openbittorrent.com%3A80&amp;tr=udp%3A%2F%2Fopen.demonii.com%3A1337&amp;tr=udp%3A%2F%2Ftracker.coppersurfer.tk%3A6969&amp;tr=udp%3A%2F%2Fexodus.desync.com%3A6969","seeders":0,"leechers":1,"uploader":"jaybee211","files":-1,"time":1417573548,"description":"Catherine.Cooksons.The.Cinder.Path.1994.DVDRip.x264.Iou1\n\nGenre                                    : Drama/Romance/War\nFormat                                   : MPEG-4\nFormat profile                           : Base Media / Version 2\nCodec ID                                 : mp42\nFile size                                : 1.36 GiB\nDuration                                 : 2h 28mn\nOverall bit rate mode                    : Variable\nOverall bit rate                         : 1 315 Kbps\n\nVideo\nID                                       : 1\nFormat                                   : AVC\nFormat/Info                              : Advanced Video Codec\nFormat profile                           : &lt;a class=&quot;__cf_email__&quot; href=&quot;/cdn-cgi/l/email-protection&quot; data-cfemail=&quot;3b73525c537b7708150a&quot;&gt;[email&amp;#160;protected]&lt;/a&gt;&lt;script cf-hash='f9e31' type=&quot;text/javascript&quot;&gt;\n/* &lt;![CDATA[ */!function(){try{var t=&quot;currentScript&quot;in document?document.currentScript:function(){for(var t=document.getElementsByTagName(&quot;script&quot;),e=t.length;e--;)if(t[e].getAttribute(&quot;cf-hash&quot;))return t[e]}();if(t&amp;&amp;t.previousSibling){var e,r,n,i,c=t.previousSibling,a=c.getAttribute(&quot;data-cfemail&quot;);if(a){for(e=&quot;&quot;,r=parseInt(a.substr(0,2),16),n=2;a.length-n;n+=2)i=parseInt(a.substr(n,2),16)^r,e+=String.fromCharCode(i);e=document.createTextNode(e),c.parentNode.replaceChild(e,c)}}}catch(u){}}();/* ]]&gt; */&lt;/script&gt;\nFormat settings, CABAC                   : Yes\nFormat settings, ReFrames                : 4 frames\nCodec ID                                 : avc1\nCodec ID/Info                            : Advanced Video Coding\nDuration                                 : 2h 28mn\nBit rate                                 : 1 211 Kbps\nMaximum bit rate                         : 3 597 Kbps\nWidth                                    : 720 pixels\nHeight                                   : 584 pixels\nDisplay aspect ratio                     : 4:3\nFrame rate mode                          : Constant\nFrame rate                               : 25.000 fps\nStandard                                 : PAL\nColor space                              : YUV\nChroma subsampling                       : 4:2:0\nBit depth                                : 8 bits\nScan type                                : Progressive\nBits/(Pixel*Frame)                       : 0.115\nStream size                              : 1.25 GiB (92%)\n\nAudio\nID                                       : 2\nFormat                                   : AAC\nFormat/Info                              : Advanced Audio Codec\nFormat profile                           : LC\nCodec ID                                 : 40\nDuration                                 : 2h 28mn\nBit rate mode                            : Variable\nBit rate                                 : 93.9 Kbps\nMaximum bit rate                         : 105 Kbps\nChannel(s)                               : 2 channels\nChannel positions                        : Front: L R\nSampling rate                            : 48.0 KHz\nCompression mode                         : Lossy\nStream size                              : 99.6 MiB (7%)\nTitle                                    : English\nSubtitles                                : English\nHardcoded                                : No\n\nScreens. &lt;a href=&quot; http://bayimg.com/caIClAAgA&quot; rel=&quot;nofollow&quot; target=&quot;_NEW&quot;&gt; http://bayimg.com/caIClAAgA&lt;/a&gt;\n\nIMDB. &lt;a href=&quot; http://www.imdb.com/title/tt0108726/&quot; rel=&quot;nofollow&quot; target=&quot;_NEW&quot;&gt; http://www.imdb.com/title/tt0108726/&lt;/a&gt;\n\nStoryline.\nTale of a farmer's son who gets involved with two sisters, then goes to fight in the trenches in WW1.\n\nEnjoy","torrent":{"xt":"urn:btih:8c7731d9fdb70b0e51ceaee99cda9b33d5843366","amp;dn":"Catherine.Cooksons.The.Cinder.Path.1994.DVDRip.x264.Iou1","amp;tr":["udp%3A%2F%2Ftracker.openbittorrent.com%3A80","udp%3A%2F%2Fopen.demonii.com%3A1337","udp%3A%2F%2Ftracker.coppersurfer.tk%3A6969","udp%3A%2F%2Fexodus.desync.com%3A6969"],"infoHash":"8c7731d9fdb70b0e51ceaee99cda9b33d5843366","infoHashBuffer":{"type":"Buffer","data":[140,119,49,217,253,183,11,14,81,206,174,233,156,218,155,51,213,132,51,102]},"announce":[],"urlList":[]}}